ETBook-SemiBoldOSF.ufo
<glyph name="one" format="2">
  <advance width="388"/>
  <unicode hex="0031"/>
  <outline>
    <contour>
      <point x="163" y="325" type="curve"/>
      <point x="172" y="333"/>
      <point x="171" y="314"/>
      <point x="171" y="312" type="curve" smooth="yes"/>
      <point x="171" y="86" type="line" smooth="yes"/>
      <point x="171" y="58"/>
      <point x="159" y="49"/>
      <point x="134" y="48" type="curve"/>
      <point x="126" y="46"/>
      <point x="117" y="47"/>
      <point x="108" y="47" type="curve"/>
      <point x="103" y="48"/>
      <point x="94" y="48"/>
      <point x="87" y="44" type="curve" smooth="yes"/>
      <point x="72" y="36"/>
      <point x="76" y="-5"/>
      <point x="93" y="-4" type="curve" smooth="yes"/>
      <point x="152" y="-1"/>
      <point x="252" y="-3"/>
      <point x="330" y="-4" type="curve" smooth="yes"/>
      <point x="346" y="-4"/>
      <point x="345" y="43"/>
      <point x="332" y="46" type="curve"/>
      <point x="326" y="47"/>
      <point x="320" y="47"/>
      <point x="315" y="47" type="curve" smooth="yes"/>
      <point x="307" y="47"/>
      <point x="289" y="45"/>
      <point x="274" y="50" type="curve"/>
      <point x="265" y="50"/>
      <point x="262" y="51"/>
      <point x="260" y="53" type="curve"/>
      <point x="254" y="58"/>
      <point x="254" y="69"/>
      <point x="254" y="89" type="curve" smooth="yes"/>
      <point x="254" y="433" type="line" smooth="yes"/>
      <point x="254" y="448"/>
      <point x="209" y="444"/>
      <point x="203" y="440" type="curve"/>
      <point x="178" y="405"/>
      <point x="135" y="366"/>
      <point x="100" y="342" type="curve" smooth="yes"/>
      <point x="86" y="333"/>
      <point x="76" y="327"/>
      <point x="59" y="315" type="curve"/>
      <point x="51" y="308"/>
      <point x="63" y="273"/>
      <point x="78" y="281" type="curve" smooth="yes"/>
      <point x="109" y="296"/>
      <point x="135" y="304"/>
    </contour>
  </outline>
</glyph>
<glyph name="seven" format="2">
  <advance width="489"/>
  <unicode hex="0037"/>
  <outline>
    <contour>
      <point x="201" y="-162" type="curve"/>
      <point x="249" y="-63"/>
      <point x="348" y="175"/>
      <point x="438" y="412" type="curve"/>
      <point x="438" y="435" type="line"/>
      <point x="434" y="443"/>
      <point x="420" y="442"/>
      <point x="411" y="442" type="curve" smooth="yes"/>
      <point x="333" y="445"/>
      <point x="176" y="445"/>
      <point x="97" y="442" type="curve" smooth="yes"/>
      <point x="89" y="442"/>
      <point x="69" y="439"/>
      <point x="62" y="421" type="curve"/>
      <point x="42" y="272" type="line" smooth="yes"/>
      <point x="39" y="251"/>
      <point x="75" y="256"/>
      <point x="80" y="262" type="curve"/>
      <point x="92" y="312" type="line" smooth="yes"/>
      <point x="104" y="357"/>
      <point x="115" y="357"/>
      <point x="137" y="357" type="curve" smooth="yes"/>
      <point x="184" y="358"/>
      <point x="266" y="358"/>
      <point x="341" y="359" type="curve"/>
      <point x="344" y="360"/>
      <point x="353" y="354"/>
      <point x="351" y="349" type="curve" smooth="yes"/>
      <point x="129" y="-150" type="line" smooth="yes"/>
      <point x="122" y="-165"/>
      <point x="135" y="-173"/>
      <point x="144" y="-174" type="curve" smooth="yes"/>
      <point x="182" y="-179" type="line" smooth="yes"/>
      <point x="193" y="-180"/>
      <point x="198" y="-170"/>
    </contour>
  </outline>
</glyph>
<glyph name="eight" format="2">
  <advance width="464"/>
  <unicode hex="0038"/>
  <outline>
    <contour>
      <point x="239" y="-14" type="curve" smooth="yes"/>
      <point x="337" y="-14"/>
      <point x="419" y="54"/>
      <point x="419" y="149" type="curve" smooth="yes"/>
      <point x="419" y="215"/>
      <point x="385" y="259"/>
      <point x="312" y="321" type="curve"/>
      <point x="308" y="325"/>
      <point x="307" y="331"/>
      <point x="311" y="334" type="curve" smooth="yes"/>
      <point x="373" y="376"/>
      <point x="398" y="417"/>
      <point x="398" y="474" type="curve" smooth="yes"/>
      <point x="398" y="557"/>
      <point x="333" y="614"/>
      <point x="245" y="614" type="curve" smooth="yes"/>
      <point x="153" y="614"/>
      <point x="86" y="555"/>
      <point x="86" y="467" type="curve" smooth="yes"/>
      <point x="86" y="406"/>
      <point x="111" y="356"/>
      <point x="172" y="307" type="curve" smooth="yes"/>
      <point x="178" y="302"/>
      <point x="174" y="296"/>
      <point x="167" y="292" type="curve"/>
      <point x="113" y="257"/>
      <point x="64" y="216"/>
      <point x="64" y="142" type="curve" smooth="yes"/>
      <point x="64" y="50"/>
      <point x="144" y="-14"/>
    </contour>
    <contour>
      <point x="240" y="575" type="curve" smooth="yes"/>
      <point x="291" y="575"/>
      <point x="327" y="535"/>
      <point x="327" y="464" type="curve" smooth="yes"/>
      <point x="327" y="434"/>
      <point x="319" y="404"/>
      <point x="305" y="383" type="curve"/>
      <point x="300" y="373"/>
      <point x="293" y="367"/>
      <point x="281" y="359" type="curve"/>
      <point x="277" y="357"/>
      <point x="270" y="353"/>
      <point x="266" y="356" type="curve" smooth="yes"/>
      <point x="188" y="412"/>
      <point x="158" y="456"/>
      <point x="158" y="500" type="curve" smooth="yes"/>
      <point x="158" y="544"/>
      <point x="191" y="575"/>
    </contour>
    <contour>
      <point x="206" y="272" type="curve"/>
      <point x="212" y="275"/>
      <point x="220" y="271"/>
      <point x="225" y="267" type="curve" smooth="yes"/>
      <point x="308" y="207"/>
      <point x="334" y="171"/>
      <point x="334" y="117" type="curve" smooth="yes"/>
      <point x="334" y="67"/>
      <point x="297" y="29"/>
      <point x="246" y="29" type="curve" smooth="yes"/>
      <point x="186" y="29"/>
      <point x="145" y="79"/>
      <point x="145" y="144" type="curve" smooth="yes"/>
      <point x="145" y="193"/>
      <point x="162" y="241"/>
    </contour>
  </outline>
</glyph>
<glyph name="G" format="2">
  <advance width="763"/>
  <unicode hex="0047"/>
  <outline>
    <contour>
      <point x="715" y="250" type="curve" smooth="yes"/>
      <point x="720" y="250"/>
      <point x="728" y="260"/>
      <point x="730" y="270" type="curve" smooth="yes"/>
      <point x="732" y="278"/>
      <point x="730" y="293"/>
      <point x="715" y="293" type="curve" smooth="yes"/>
      <point x="649" y="292"/>
      <point x="517" y="291"/>
      <point x="443" y="293" type="curve"/>
      <point x="419" y="290"/>
      <point x="428" y="248"/>
      <point x="443" y="248" type="curve" smooth="yes"/>
      <point x="481" y="247" type="line" smooth="yes"/>
      <point x="538" y="245"/>
      <point x="552" y="235"/>
      <point x="552" y="187" type="curve" smooth="yes"/>
      <point x="552" y="154"/>
      <point x="552" y="113"/>
      <point x="552" y="87" type="curve" smooth="yes"/>
      <point x="552" y="78"/>
      <point x="552" y="63"/>
      <point x="543" y="59" type="curve" smooth="yes"/>
      <point x="502" y="41"/>
      <point x="460" y="29"/>
      <point x="418" y="29" type="curve" smooth="yes"/>
      <point x="271" y="29"/>
      <point x="175" y="147"/>
      <point x="175" y="319" type="curve" smooth="yes"/>
      <point x="175" y="506"/>
      <point x="269" y="621"/>
      <point x="429" y="621" type="curve" smooth="yes"/>
      <point x="533" y="621"/>
      <point x="591" y="567"/>
      <point x="612" y="461" type="curve" smooth="yes"/>
      <point x="615" y="445"/>
      <point x="653" y="444"/>
      <point x="654" y="464" type="curve" smooth="yes"/>
      <point x="657" y="515"/>
      <point x="655" y="630"/>
      <point x="650" y="639" type="curve" smooth="yes"/>
      <point x="647" y="645"/>
      <point x="627" y="645"/>
      <point x="623" y="639" type="curve"/>
      <point x="617" y="633"/>
      <point x="615" y="632"/>
      <point x="607" y="632" type="curve" smooth="yes"/>
      <point x="600" y="632"/>
      <point x="595" y="632"/>
      <point x="578" y="637" type="curve" smooth="yes"/>
      <point x="505" y="659"/>
      <point x="468" y="667"/>
      <point x="414" y="667" type="curve" smooth="yes"/>
      <point x="308" y="667"/>
      <point x="239" y="638"/>
      <point x="171" y="574" type="curve" smooth="yes"/>
      <point x="100" y="508"/>
      <point x="55" y="414"/>
      <point x="55" y="314" type="curve" smooth="yes"/>
      <point x="55" y="123"/>
      <point x="191" y="-19"/>
      <point x="386" y="-19" type="curve" smooth="yes"/>
      <point x="471" y="-19"/>
      <point x="579" y="9"/>
      <point x="646" y="44" type="curve"/>
      <point x="657" y="49"/>
      <point x="658" y="64"/>
      <point x="658" y="75" type="curve" smooth="yes"/>
      <point x="657" y="105"/>
      <point x="657" y="160"/>
      <point x="658" y="187" type="curve" smooth="yes"/>
      <point x="659" y="235"/>
      <point x="671" y="248"/>
    </contour>
  </outline>
</glyph>
<glyph name="K" format="2">
  <advance width="740"/>
  <unicode hex="004B"/>
  <outline>
    <contour>
      <point x="698" y="-3" type="curve"/>
      <point x="718" y="1"/>
      <point x="717" y="24"/>
      <point x="711" y="36" type="curve" smooth="yes"/>
      <point x="707" y="45"/>
      <point x="702" y="45"/>
      <point x="693" y="45" type="curve" smooth="yes"/>
      <point x="633" y="45"/>
      <point x="612" y="51"/>
      <point x="570" y="102" type="curve" smooth="yes"/>
      <point x="514" y="170"/>
      <point x="464" y="242"/>
      <point x="400" y="302" type="curve" smooth="yes"/>
      <point x="377" y="325"/>
      <point x="363" y="337"/>
      <point x="350" y="344" type="curve"/>
      <point x="354" y="348"/>
      <point x="358" y="353"/>
      <point x="361" y="357" type="curve" smooth="yes"/>
      <point x="400" y="406"/>
      <point x="438" y="456"/>
      <point x="472" y="508" type="curve" smooth="yes"/>
      <point x="481" y="521"/>
      <point x="490" y="537"/>
      <point x="501" y="552" type="curve" smooth="yes"/>
      <point x="532" y="595"/>
      <point x="567" y="609"/>
      <point x="631" y="610" type="curve"/>
      <point x="638" y="609"/>
      <point x="644" y="611"/>
      <point x="647" y="616" type="curve" smooth="yes"/>
      <point x="654" y="628"/>
      <point x="650" y="651"/>
      <point x="632" y="650" type="curve" smooth="yes"/>
      <point x="584" y="648"/>
      <point x="482" y="647"/>
      <point x="385" y="650" type="curve"/>
      <point x="380" y="651"/>
      <point x="370" y="649"/>
      <point x="368" y="642" type="curve"/>
      <point x="365" y="635"/>
      <point x="362" y="618"/>
      <point x="374" y="609" type="curve"/>
      <point x="387" y="608"/>
      <point x="381" y="608"/>
      <point x="390" y="607" type="curve" smooth="yes"/>
      <point x="435" y="603"/>
      <point x="436" y="599"/>
      <point x="436" y="589" type="curve" smooth="yes"/>
      <point x="436" y="535"/>
      <point x="326" y="402"/>
      <point x="277" y="359" type="curve" smooth="yes"/>
      <point x="265" y="348"/>
      <point x="255" y="341"/>
      <point x="243" y="337" type="curve" smooth="yes"/>
      <point x="240" y="336"/>
      <point x="234" y="339"/>
      <point x="234" y="345" type="curve" smooth="yes"/>
      <point x="234" y="545" type="line" smooth="yes"/>
      <point x="234" y="595"/>
      <point x="247" y="607"/>
      <point x="304" y="607" type="curve" smooth="yes"/>
      <point x="317" y="607"/>
      <point x="327" y="614"/>
      <point x="327" y="630" type="curve" smooth="yes"/>
      <point x="327" y="648"/>
      <point x="315" y="651"/>
      <point x="308" y="651" type="curve" smooth="yes"/>
      <point x="255" y="649"/>
      <point x="163" y="649"/>
      <point x="43" y="652" type="curve" smooth="yes"/>
      <point x="35" y="652"/>
      <point x="27" y="651"/>
      <point x="24" y="642" type="curve"/>
      <point x="19" y="632"/>
      <point x="22" y="608"/>
      <point x="37" y="607" type="curve"/>
      <point x="57" y="607" type="line" smooth="yes"/>
      <point x="113" y="607"/>
      <point x="127" y="595"/>
      <point x="127" y="545" type="curve" smooth="yes"/>
      <point x="127" y="103" type="line" smooth="yes"/>
      <point x="127" y="57"/>
      <point x="98" y="45"/>
      <point x="57" y="45" type="curve"/>
      <point x="51" y="46"/>
      <point x="43" y="47"/>
      <point x="36" y="45" type="curve"/>
      <point x="16" y="37"/>
      <point x="18" y="12"/>
      <point x="25" y="2" type="curve" smooth="yes"/>
      <point x="30" y="-5"/>
      <point x="41" y="-4"/>
      <point x="48" y="-4" type="curve" smooth="yes"/>
      <point x="104" y="-2"/>
      <point x="235" y="-1"/>
      <point x="309" y="-4" type="curve" smooth="yes"/>
      <point x="317" y="-4"/>
      <point x="325" y="-3"/>
      <point x="328" y="3" type="curve"/>
      <point x="331" y="10"/>
      <point x="331" y="27"/>
      <point x="328" y="34" type="curve"/>
      <point x="323" y="43"/>
      <point x="312" y="44"/>
      <point x="304" y="44" type="curve" smooth="yes"/>
      <point x="248" y="44"/>
      <point x="234" y="60"/>
      <point x="234" y="103" type="curve" smooth="yes"/>
      <point x="234" y="266" type="line" smooth="yes"/>
      <point x="234" y="276"/>
      <point x="235" y="293"/>
      <point x="244" y="292" type="curve"/>
      <point x="254" y="290"/>
      <point x="264" y="287"/>
      <point x="275" y="278" type="curve"/>
      <point x="348" y="226"/>
      <point x="400" y="151"/>
      <point x="455" y="82" type="curve" smooth="yes"/>
      <point x="464" y="71"/>
      <point x="474" y="43"/>
      <point x="417" y="41" type="curve" smooth="yes"/>
      <point x="408" y="41"/>
      <point x="401" y="43"/>
      <point x="397" y="32" type="curve" smooth="yes"/>
      <point x="394" y="23"/>
      <point x="395" y="12"/>
      <point x="398" y="5" type="curve"/>
      <point x="402" y="-2"/>
      <point x="408" y="-3"/>
      <point x="415" y="-4" type="curve"/>
      <point x="482" y="-3"/>
      <point x="618" y="2"/>
    </contour>
  </outline>
</glyph>
<glyph name="S" format="2">
  <advance width="513"/>
  <unicode hex="0053"/>
  <outline>
    <contour>
      <point x="253" y="-19" type="curve" smooth="yes"/>
      <point x="376" y="-19"/>
      <point x="461" y="60"/>
      <point x="461" y="167" type="curve" smooth="yes"/>
      <point x="461" y="274"/>
      <point x="363" y="338"/>
      <point x="287" y="390" type="curve" smooth="yes"/>
      <point x="240" y="422"/>
      <point x="159" y="472"/>
      <point x="159" y="537" type="curve" smooth="yes"/>
      <point x="159" y="586"/>
      <point x="189" y="620"/>
      <point x="248" y="620" type="curve" smooth="yes"/>
      <point x="311" y="620"/>
      <point x="352" y="578"/>
      <point x="382" y="504" type="curve"/>
      <point x="384" y="497"/>
      <point x="416" y="487"/>
      <point x="418" y="511" type="curve"/>
      <point x="417" y="525"/>
      <point x="413" y="554"/>
      <point x="402" y="639" type="curve" smooth="yes"/>
      <point x="401" y="645"/>
      <point x="399" y="652"/>
      <point x="392" y="651" type="curve"/>
      <point x="385" y="652"/>
      <point x="376" y="652"/>
      <point x="369" y="650" type="curve"/>
      <point x="361" y="643"/>
      <point x="360" y="641"/>
      <point x="356" y="641" type="curve" smooth="yes"/>
      <point x="351" y="641"/>
      <point x="343" y="643"/>
      <point x="322" y="650" type="curve" smooth="yes"/>
      <point x="290" y="661"/>
      <point x="274" y="667"/>
      <point x="239" y="667" type="curve" smooth="yes"/>
      <point x="133" y="667"/>
      <point x="59" y="601"/>
      <point x="59" y="508" type="curve" smooth="yes"/>
      <point x="59" y="412"/>
      <point x="140" y="352"/>
      <point x="214" y="303" type="curve" smooth="yes"/>
      <point x="272" y="264"/>
      <point x="359" y="217"/>
      <point x="359" y="137" type="curve" smooth="yes"/>
      <point x="359" y="77"/>
      <point x="317" y="32"/>
      <point x="244" y="32" type="curve" smooth="yes"/>
      <point x="211" y="32"/>
      <point x="194" y="39"/>
      <point x="166" y="59" type="curve" smooth="yes"/>
      <point x="131" y="83"/>
      <point x="114" y="110"/>
      <point x="94" y="170" type="curve"/>
      <point x="87" y="179"/>
      <point x="54" y="175"/>
      <point x="56" y="162" type="curve" smooth="yes"/>
      <point x="63" y="100"/>
      <point x="70" y="49"/>
      <point x="77" y="8" type="curve"/>
      <point x="78" y="4"/>
      <point x="80" y="-2"/>
      <point x="86" y="-3" type="curve"/>
      <point x="93" y="-5"/>
      <point x="103" y="-5"/>
      <point x="112" y="-1" type="curve"/>
      <point x="118" y="9"/>
      <point x="120" y="9"/>
      <point x="123" y="9" type="curve" smooth="yes"/>
      <point x="127" y="9"/>
      <point x="130" y="8"/>
      <point x="150" y="2" type="curve" smooth="yes"/>
      <point x="184" y="-8"/>
      <point x="218" y="-19"/>
    </contour>
  </outline>
</glyph>
<glyph name="bracketright" format="2">
  <advance width="343"/>
  <unicode hex="005D"/>
  <outline>
    <contour>
      <point x="173" y="-229" type="curve" smooth="yes"/>
      <point x="189" y="-228"/>
      <point x="200" y="-222"/>
      <point x="200" y="-204" type="curve" smooth="yes"/>
      <point x="204" y="12"/>
      <point x="203" y="444"/>
      <point x="200" y="659" type="curve" smooth="yes"/>
      <point x="200" y="680"/>
      <point x="195" y="688"/>
      <point x="175" y="690" type="curve" smooth="yes"/>
      <point x="144" y="693"/>
      <point x="86" y="690"/>
      <point x="54" y="690" type="curve" smooth="yes"/>
      <point x="48" y="690" type="line" smooth="yes"/>
      <point x="41" y="690"/>
      <point x="32" y="687"/>
      <point x="32" y="678" type="curve" smooth="yes"/>
      <point x="32" y="663" type="line" smooth="yes"/>
      <point x="32" y="653"/>
      <point x="38" y="650"/>
      <point x="44" y="650" type="curve"/>
      <point x="59" y="648"/>
      <point x="74" y="648"/>
      <point x="89" y="646" type="curve" smooth="yes"/>
      <point x="108" y="644"/>
      <point x="114" y="641"/>
      <point x="115" y="618" type="curve" smooth="yes"/>
      <point x="116" y="408"/>
      <point x="116" y="38"/>
      <point x="115" y="-156" type="curve" smooth="yes"/>
      <point x="114" y="-215"/>
      <point x="32" y="-161"/>
      <point x="32" y="-204" type="curve" smooth="yes"/>
      <point x="32" y="-215" type="line" smooth="yes"/>
      <point x="32" y="-225"/>
      <point x="47" y="-229"/>
      <point x="55" y="-229" type="curve"/>
      <point x="86" y="-231"/>
      <point x="142" y="-230"/>
    </contour>
  </outline>
</glyph>
<glyph name="d" format="2">
  <advance width="513"/>
  <unicode hex="0064"/>
  <outline>
    <contour>
      <point x="492" y="39" type="curve" smooth="yes"/>
      <point x="498" y="42"/>
      <point x="501" y="56"/>
      <point x="498" y="68" type="curve"/>
      <point x="492" y="85"/>
      <point x="485" y="82"/>
      <point x="473" y="80" type="curve"/>
      <point x="469" y="78"/>
      <point x="449" y="71"/>
      <point x="444" y="71" type="curve" smooth="yes"/>
      <point x="426" y="71"/>
      <point x="423" y="72"/>
      <point x="423" y="121" type="curve" smooth="yes"/>
      <point x="423" y="711" type="line" smooth="yes"/>
      <point x="423" y="725"/>
      <point x="417" y="741"/>
      <point x="399" y="734" type="curve" smooth="yes"/>
      <point x="360" y="719"/>
      <point x="310" y="702"/>
      <point x="276" y="691" type="curve"/>
      <point x="265" y="689"/>
      <point x="261" y="680"/>
      <point x="262" y="670" type="curve" smooth="yes"/>
      <point x="263" y="661"/>
      <point x="264" y="653"/>
      <point x="275" y="652" type="curve"/>
      <point x="289" y="650"/>
      <point x="318" y="651"/>
      <point x="330" y="644" type="curve"/>
      <point x="334" y="642"/>
      <point x="334" y="636"/>
      <point x="335" y="632" type="curve"/>
      <point x="335" y="615"/>
      <point x="336" y="481"/>
      <point x="335" y="442" type="curve"/>
      <point x="334" y="433"/>
      <point x="334" y="416"/>
      <point x="323" y="419" type="curve" smooth="yes"/>
      <point x="297" y="427"/>
      <point x="273" y="432"/>
      <point x="248" y="432" type="curve" smooth="yes"/>
      <point x="120" y="432"/>
      <point x="22" y="327"/>
      <point x="22" y="193" type="curve" smooth="yes"/>
      <point x="22" y="80"/>
      <point x="96" y="-15"/>
      <point x="192" y="-15" type="curve" smooth="yes"/>
      <point x="230" y="-15"/>
      <point x="270" y="4"/>
      <point x="326" y="43" type="curve"/>
      <point x="330" y="45"/>
      <point x="335" y="42"/>
      <point x="334" y="26" type="curve" smooth="yes"/>
      <point x="333" y="12"/>
      <point x="338" y="-18"/>
      <point x="363" y="-10" type="curve" smooth="yes"/>
      <point x="397" y="0"/>
      <point x="459" y="23"/>
    </contour>
    <contour>
      <point x="334" y="310" type="curve"/>
      <point x="334" y="113" type="line"/>
      <point x="333" y="102"/>
      <point x="328" y="95"/>
      <point x="327" y="95" type="curve"/>
      <point x="288" y="68"/>
      <point x="253" y="55"/>
      <point x="228" y="55" type="curve" smooth="yes"/>
      <point x="164" y="55"/>
      <point x="113" y="123"/>
      <point x="113" y="224" type="curve" smooth="yes"/>
      <point x="113" y="319"/>
      <point x="159" y="380"/>
      <point x="227" y="380" type="curve" smooth="yes"/>
      <point x="268" y="380"/>
      <point x="299" y="361"/>
    </contour>
  </outline>
</glyph>
<glyph name="v" format="2">
  <advance width="516"/>
  <unicode hex="0076"/>
  <outline>
    <contour>
      <point x="493" y="379" type="curve"/>
      <point x="497" y="380"/>
      <point x="503" y="389"/>
      <point x="504" y="399" type="curve"/>
      <point x="504" y="410"/>
      <point x="499" y="419"/>
      <point x="491" y="419" type="curve" smooth="yes"/>
      <point x="437" y="418"/>
      <point x="362" y="418"/>
      <point x="317" y="419" type="curve" smooth="yes"/>
      <point x="305" y="419"/>
      <point x="303" y="395"/>
      <point x="308" y="384" type="curve"/>
      <point x="311" y="375"/>
      <point x="316" y="378"/>
      <point x="324" y="377" type="curve"/>
      <point x="352" y="375"/>
      <point x="392" y="367"/>
      <point x="377" y="334" type="curve" smooth="yes"/>
      <point x="352" y="282"/>
      <point x="314" y="190"/>
      <point x="292" y="135" type="curve"/>
      <point x="291" y="132"/>
      <point x="283" y="113"/>
      <point x="278" y="120" type="curve"/>
      <point x="264" y="152"/>
      <point x="179" y="348"/>
      <point x="179" y="363" type="curve" smooth="yes"/>
      <point x="179" y="371"/>
      <point x="179" y="378"/>
      <point x="222" y="378" type="curve" smooth="yes"/>
      <point x="231" y="378" type="line" smooth="yes"/>
      <point x="238" y="378"/>
      <point x="244" y="388"/>
      <point x="244" y="398" type="curve" smooth="yes"/>
      <point x="244" y="409"/>
      <point x="238" y="419"/>
      <point x="233" y="419" type="curve" smooth="yes"/>
      <point x="170" y="416"/>
      <point x="48" y="421"/>
      <point x="27" y="419" type="curve" smooth="yes"/>
      <point x="12" y="418"/>
      <point x="5" y="381"/>
      <point x="23" y="378" type="curve" smooth="yes"/>
      <point x="52" y="373"/>
      <point x="71" y="374"/>
      <point x="85" y="344" type="curve" smooth="yes"/>
      <point x="89" y="336"/>
      <point x="94" y="323"/>
      <point x="104" y="300" type="curve" smooth="yes"/>
      <point x="231" y="9" type="line"/>
      <point x="234" y="1"/>
      <point x="235" y="-5"/>
      <point x="244" y="-9" type="curve" smooth="yes"/>
      <point x="248" y="-11"/>
      <point x="266" y="-11"/>
      <point x="273" y="-10" type="curve"/>
      <point x="282" y="-8"/>
      <point x="286" y="-3"/>
      <point x="290" y="5" type="curve"/>
      <point x="410" y="280" type="line" smooth="yes"/>
      <point x="446" y="362"/>
      <point x="455" y="375"/>
    </contour>
  </outline>
</glyph>
<glyph name="braceleft" format="2">
  <advance width="501"/>
  <unicode hex="007B"/>
  <outline>
    <contour>
      <point x="385" y="670" type="curve"/>
      <point x="390" y="672"/>
      <point x="399" y="678"/>
      <point x="399" y="685" type="curve"/>
      <point x="399" y="684" type="line"/>
      <point x="399" y="687"/>
      <point x="399" y="693"/>
      <point x="397" y="702" type="curve"/>
      <point x="395" y="709"/>
      <point x="389" y="711"/>
      <point x="385" y="711" type="curve"/>
      <point x="272" y="694"/>
      <point x="193" y="607"/>
      <point x="193" y="503" type="curve" smooth="yes"/>
      <point x="193" y="480"/>
      <point x="196" y="452"/>
      <point x="203" y="420" type="curve" smooth="yes"/>
      <point x="211" y="386"/>
      <point x="215" y="362"/>
      <point x="215" y="347" type="curve" smooth="yes"/>
      <point x="215" y="304"/>
      <point x="179" y="265"/>
      <point x="116" y="251" type="curve" smooth="yes"/>
      <point x="111" y="250"/>
      <point x="106" y="245"/>
      <point x="105" y="238" type="curve"/>
      <point x="103" y="233"/>
      <point x="103" y="228"/>
      <point x="105" y="223" type="curve"/>
      <point x="105" y="218"/>
      <point x="108" y="212"/>
      <point x="114" y="210" type="curve"/>
      <point x="182" y="195"/>
      <point x="216" y="158"/>
      <point x="216" y="112" type="curve" smooth="yes"/>
      <point x="216" y="99"/>
      <point x="211" y="69"/>
      <point x="204" y="38" type="curve" smooth="yes"/>
      <point x="198" y="8"/>
      <point x="194" y="-20"/>
      <point x="194" y="-42" type="curve" smooth="yes"/>
      <point x="194" y="-146"/>
      <point x="271" y="-231"/>
      <point x="384" y="-249" type="curve" smooth="yes"/>
      <point x="390" y="-250"/>
      <point x="396" y="-249"/>
      <point x="400" y="-242" type="curve"/>
      <point x="403" y="-234"/>
      <point x="403" y="-228"/>
      <point x="400" y="-219" type="curve"/>
      <point x="400" y="-218"/>
      <point x="399" y="-216"/>
      <point x="397" y="-215" type="curve"/>
      <point x="395" y="-212"/>
      <point x="391" y="-210"/>
      <point x="387" y="-209" type="curve" smooth="yes"/>
      <point x="316" y="-189"/>
      <point x="285" y="-151"/>
      <point x="285" y="-97" type="curve" smooth="yes"/>
      <point x="285" y="-79"/>
      <point x="288" y="-53"/>
      <point x="294" y="-25" type="curve" smooth="yes"/>
      <point x="300" y="7"/>
      <point x="304" y="43"/>
      <point x="304" y="61" type="curve" smooth="yes"/>
      <point x="304" y="130"/>
      <point x="264" y="187"/>
      <point x="195" y="225" type="curve"/>
      <point x="186" y="229"/>
      <point x="185" y="232"/>
      <point x="194" y="236" type="curve" smooth="yes"/>
      <point x="215" y="246"/>
      <point x="229" y="257"/>
      <point x="249" y="276" type="curve" smooth="yes"/>
      <point x="284" y="311"/>
      <point x="304" y="353"/>
      <point x="304" y="400" type="curve" smooth="yes"/>
      <point x="304" y="422"/>
      <point x="300" y="452"/>
      <point x="293" y="488" type="curve" smooth="yes"/>
      <point x="287" y="517"/>
      <point x="284" y="541"/>
      <point x="284" y="560" type="curve" smooth="yes"/>
      <point x="284" y="614"/>
      <point x="318" y="654"/>
    </contour>
  </outline>
</glyph>
<glyph name="sterling" format="2">
  <advance width="796"/>
  <unicode hex="00A3"/>
  <outline>
    <contour>
      <point x="731" y="571" type="curve" smooth="yes"/>
      <point x="755" y="571"/>
      <point x="776" y="588"/>
      <point x="776" y="614" type="curve" smooth="yes"/>
      <point x="776" y="665"/>
      <point x="709" y="699"/>
      <point x="643" y="699" type="curve" smooth="yes"/>
      <point x="520" y="699"/>
      <point x="432" y="592"/>
      <point x="376" y="497" type="curve" smooth="yes"/>
      <point x="305" y="374"/>
      <point x="265" y="238"/>
      <point x="216" y="106" type="curve"/>
      <point x="80" y="106" type="line" smooth="yes"/>
      <point x="65" y="106"/>
      <point x="58" y="101"/>
      <point x="56" y="88" type="curve"/>
      <point x="54" y="80"/>
      <point x="49" y="64"/>
      <point x="60" y="60" type="curve"/>
      <point x="62" y="59"/>
      <point x="65" y="58"/>
      <point x="69" y="58" type="curve" smooth="yes"/>
      <point x="72" y="58"/>
      <point x="75" y="59"/>
      <point x="77" y="59" type="curve" smooth="yes"/>
      <point x="191" y="59" type="line" smooth="yes"/>
      <point x="201" y="59"/>
      <point x="193" y="45"/>
      <point x="190" y="36" type="curve" smooth="yes"/>
      <point x="170" y="-17"/>
      <point x="161" y="-36"/>
      <point x="138" y="-77" type="curve"/>
      <point x="76" y="-103"/>
      <point x="15" y="-157"/>
      <point x="15" y="-198" type="curve" smooth="yes"/>
      <point x="15" y="-219"/>
      <point x="34" y="-234"/>
      <point x="54" y="-234" type="curve" smooth="yes"/>
      <point x="95" y="-234"/>
      <point x="144" y="-181"/>
      <point x="179" y="-111" type="curve"/>
      <point x="181" y="-110" type="line" smooth="yes"/>
      <point x="212" y="-95"/>
      <point x="230" y="-90"/>
      <point x="253" y="-90" type="curve" smooth="yes"/>
      <point x="319" y="-90"/>
      <point x="386" y="-168"/>
      <point x="440" y="-203" type="curve" smooth="yes"/>
      <point x="472" y="-224"/>
      <point x="512" y="-235"/>
      <point x="548" y="-235" type="curve" smooth="yes"/>
      <point x="651" y="-235"/>
      <point x="750" y="-148"/>
      <point x="750" y="-52" type="curve" smooth="yes"/>
      <point x="750" y="-10"/>
      <point x="729" y="28"/>
      <point x="693" y="28" type="curve" smooth="yes"/>
      <point x="667" y="28"/>
      <point x="647" y="8"/>
      <point x="647" y="-19" type="curve" smooth="yes"/>
      <point x="647" y="-48"/>
      <point x="675" y="-68"/>
      <point x="675" y="-97" type="curve" smooth="yes"/>
      <point x="675" y="-132"/>
      <point x="641" y="-163"/>
      <point x="595" y="-163" type="curve" smooth="yes"/>
      <point x="572" y="-163"/>
      <point x="551" y="-155"/>
      <point x="530" y="-143" type="curve" smooth="yes"/>
      <point x="507" y="-130"/>
      <point x="486" y="-114"/>
      <point x="465" y="-99" type="curve" smooth="yes"/>
      <point x="421" y="-66"/>
      <point x="371" y="-33"/>
      <point x="303" y="-33" type="curve" smooth="yes"/>
      <point x="280" y="-33"/>
      <point x="257" y="-36"/>
      <point x="235" y="-43" type="curve" smooth="yes"/>
      <point x="228" y="-45"/>
      <point x="227" y="-41"/>
      <point x="230" y="-36" type="curve"/>
      <point x="250" y="-8"/>
      <point x="268" y="20"/>
      <point x="287" y="59" type="curve"/>
      <point x="443" y="57" type="line" smooth="yes"/>
      <point x="463" y="56"/>
      <point x="469" y="66"/>
      <point x="471" y="75" type="curve" smooth="yes"/>
      <point x="474" y="88"/>
      <point x="483" y="107"/>
      <point x="460" y="107" type="curve" smooth="yes"/>
      <point x="412" y="107"/>
      <point x="367" y="106"/>
      <point x="319" y="106" type="curve" smooth="yes"/>
      <point x="309" y="106"/>
      <point x="312" y="110"/>
      <point x="315" y="117" type="curve" smooth="yes"/>
      <point x="363" y="222"/>
      <point x="406" y="330"/>
      <point x="449" y="438" type="curve" smooth="yes"/>
      <point x="483" y="523"/>
      <point x="505" y="561"/>
      <point x="529" y="594" type="curve" smooth="yes"/>
      <point x="552" y="624"/>
      <point x="580" y="641"/>
      <point x="604" y="641" type="curve" smooth="yes"/>
      <point x="635" y="641"/>
      <point x="653" y="625"/>
      <point x="671" y="608" type="curve"/>
      <point x="675" y="603"/>
      <point x="679" y="599"/>
      <point x="684" y="595" type="curve"/>
      <point x="696" y="583"/>
      <point x="710" y="571"/>
    </contour>
  </outline>
</glyph>
<glyph name="yen" format="2">
  <advance width="523"/>
  <unicode hex="00A5"/>
  <outline>
    <contour>
      <point x="514" y="659" type="curve" smooth="yes"/>
      <point x="525" y="659"/>
      <point x="528" y="663"/>
      <point x="528" y="673" type="curve" smooth="yes"/>
      <point x="528" y="692" type="line" smooth="yes"/>
      <point x="528" y="696"/>
      <point x="523" y="703"/>
      <point x="512" y="702" type="curve" smooth="yes"/>
      <point x="451" y="697"/>
      <point x="406" y="701"/>
      <point x="345" y="701" type="curve" smooth="yes"/>
      <point x="336" y="701"/>
      <point x="332" y="695"/>
      <point x="332" y="687" type="curve" smooth="yes"/>
      <point x="332" y="671" type="line" smooth="yes"/>
      <point x="332" y="657"/>
      <point x="347" y="659"/>
      <point x="357" y="658" type="curve" smooth="yes"/>
      <point x="385" y="656"/>
      <point x="389" y="649"/>
      <point x="389" y="640" type="curve" smooth="yes"/>
      <point x="389" y="622"/>
      <point x="359" y="557"/>
      <point x="358" y="553" type="curve"/>
      <point x="356" y="548"/>
      <point x="350" y="544"/>
      <point x="344" y="544" type="curve" smooth="yes"/>
      <point x="234" y="544" type="line" smooth="yes"/>
      <point x="227" y="544"/>
      <point x="215" y="545"/>
      <point x="213" y="551" type="curve"/>
      <point x="188" y="614" type="line"/>
      <point x="181" y="629"/>
      <point x="179" y="637"/>
      <point x="179" y="639" type="curve" smooth="yes"/>
      <point x="179" y="657"/>
      <point x="223" y="659"/>
      <point x="231" y="659" type="curve"/>
      <point x="238" y="660"/>
      <point x="242" y="660"/>
      <point x="243" y="666" type="curve"/>
      <point x="244" y="669"/>
      <point x="242" y="688"/>
      <point x="242" y="692" type="curve" smooth="yes"/>
      <point x="242" y="699"/>
      <point x="237" y="706"/>
      <point x="225" y="705" type="curve" smooth="yes"/>
      <point x="169" y="702"/>
      <point x="65" y="702"/>
      <point x="12" y="704" type="curve" smooth="yes"/>
      <point x="6" y="704"/>
      <point x="-4" y="701"/>
      <point x="-2" y="690" type="curve"/>
      <point x="-3" y="685"/>
      <point x="-4" y="677"/>
      <point x="-1" y="672" type="curve"/>
      <point x="0" y="665"/>
      <point x="2" y="659"/>
      <point x="12" y="659" type="curve"/>
      <point x="31" y="658"/>
      <point x="43" y="653"/>
      <point x="55" y="641" type="curve"/>
      <point x="63" y="631"/>
      <point x="118" y="544"/>
      <point x="92" y="544" type="curve" smooth="yes"/>
      <point x="16" y="544" type="line" smooth="yes"/>
      <point x="5" y="544"/>
      <point x="-1" y="541"/>
      <point x="-1" y="526" type="curve" smooth="yes"/>
      <point x="-1" y="504" type="line" smooth="yes"/>
      <point x="-1" y="489"/>
      <point x="8" y="484"/>
      <point x="19" y="484" type="curve" smooth="yes"/>
      <point x="121" y="484" type="line" smooth="yes"/>
      <point x="125" y="484"/>
      <point x="128" y="482"/>
      <point x="132" y="474" type="curve"/>
      <point x="158" y="411" type="line"/>
      <point x="162" y="403"/>
      <point x="150" y="404"/>
      <point x="145" y="404" type="curve" smooth="yes"/>
      <point x="24" y="406" type="line" smooth="yes"/>
      <point x="7" y="406"/>
      <point x="-1" y="403"/>
      <point x="-1" y="389" type="curve" smooth="yes"/>
      <point x="-1" y="366" type="line" smooth="yes"/>
      <point x="-1" y="348"/>
      <point x="12" y="345"/>
      <point x="22" y="345" type="curve" smooth="yes"/>
      <point x="173" y="345" type="line" smooth="yes"/>
      <point x="181" y="345"/>
      <point x="185" y="346"/>
      <point x="189" y="338" type="curve" smooth="yes"/>
      <point x="210" y="291" type="line"/>
      <point x="210" y="129" type="line" smooth="yes"/>
      <point x="210" y="43"/>
      <point x="202" y="42"/>
      <point x="150" y="42" type="curve" smooth="yes"/>
      <point x="142" y="42" type="line" smooth="yes"/>
      <point x="122" y="42"/>
      <point x="126" y="26"/>
      <point x="124" y="12" type="curve"/>
      <point x="123" y="1"/>
      <point x="132" y="-4"/>
      <point x="141" y="-4" type="curve"/>
      <point x="192" y="-1"/>
      <point x="307" y="0"/>
      <point x="379" y="-4" type="curve" smooth="yes"/>
      <point x="392" y="-5"/>
      <point x="401" y="-6"/>
      <point x="401" y="11" type="curve" smooth="yes"/>
      <point x="401" y="25" type="line" smooth="yes"/>
      <point x="401" y="36"/>
      <point x="393" y="43"/>
      <point x="381" y="43" type="curve" smooth="yes"/>
      <point x="370" y="43" type="line" smooth="yes"/>
      <point x="325" y="43"/>
      <point x="315" y="48"/>
      <point x="315" y="129" type="curve" smooth="yes"/>
      <point x="315" y="302" type="line"/>
      <point x="333" y="341" type="line"/>
      <point x="335" y="346"/>
      <point x="353" y="345"/>
      <point x="357" y="345" type="curve" smooth="yes"/>
      <point x="502" y="344" type="line" smooth="yes"/>
      <point x="516" y="344"/>
      <point x="527" y="349"/>
      <point x="527" y="363" type="curve" smooth="yes"/>
      <point x="527" y="387" type="line" smooth="yes"/>
      <point x="527" y="401"/>
      <point x="517" y="404"/>
      <point x="510" y="406" type="curve"/>
      <point x="375" y="404" type="line" smooth="yes"/>
      <point x="369" y="404"/>
      <point x="362" y="406"/>
      <point x="364" y="411" type="curve" smooth="yes"/>
      <point x="394" y="478" type="line" smooth="yes"/>
      <point x="396" y="482"/>
      <point x="400" y="484"/>
      <point x="406" y="484" type="curve" smooth="yes"/>
      <point x="507" y="484" type="line" smooth="yes"/>
      <point x="521" y="484"/>
      <point x="527" y="492"/>
      <point x="527" y="506" type="curve" smooth="yes"/>
      <point x="527" y="525" type="line" smooth="yes"/>
      <point x="527" y="533"/>
      <point x="521" y="544"/>
      <point x="507" y="544" type="curve" smooth="yes"/>
      <point x="433" y="544" type="line" smooth="yes"/>
      <point x="420" y="544"/>
      <point x="423" y="548"/>
      <point x="440" y="588" type="curve" smooth="yes"/>
      <point x="467" y="650"/>
      <point x="482" y="659"/>
    </contour>
    <contour>
      <point x="315" y="484" type="line" smooth="yes"/>
      <point x="317" y="484"/>
      <point x="326" y="480"/>
      <point x="325" y="478" type="curve"/>
      <point x="289" y="391" type="line" smooth="yes"/>
      <point x="284" y="378"/>
      <point x="282" y="385"/>
      <point x="281" y="388" type="curve"/>
      <point x="245" y="475" type="line"/>
      <point x="244" y="478"/>
      <point x="251" y="484"/>
      <point x="253" y="484" type="curve" smooth="yes"/>
    </contour>
  </outline>
</glyph>
<glyph name="brokenbar" format="2">
  <advance width="534"/>
  <unicode hex="00A6"/>
  <outline>
    <contour>
      <point x="236" y="473" type="line"/>
      <point x="301" y="473" type="line"/>
      <point x="301" y="860" type="line"/>
      <point x="236" y="860" type="line"/>
    </contour>
    <contour>
      <point x="236" y="-22" type="line"/>
      <point x="301" y="-22" type="line"/>
      <point x="301" y="364" type="line"/>
      <point x="236" y="364" type="line"/>
    </contour>
  </outline>
</glyph>
<glyph name="section" format="2">
  <advance width="491"/>
  <unicode hex="00A7"/>
  <outline>
    <contour>
      <point x="201" y="-237" type="curve" smooth="yes"/>
      <point x="330" y="-237"/>
      <point x="441" y="-117"/>
      <point x="441" y="21" type="curve" smooth="yes"/>
      <point x="441" y="50"/>
      <point x="438" y="89"/>
      <point x="430" y="120" type="curve" smooth="yes"/>
      <point x="411" y="194"/>
      <point x="380" y="248"/>
      <point x="273" y="402" type="curve" smooth="yes"/>
      <point x="247" y="439"/>
      <point x="179" y="529"/>
      <point x="179" y="572" type="curve" smooth="yes"/>
      <point x="179" y="612"/>
      <point x="215" y="646"/>
      <point x="261" y="646" type="curve" smooth="yes"/>
      <point x="288" y="646"/>
      <point x="305" y="629"/>
      <point x="323" y="610" type="curve"/>
      <point x="327" y="605"/>
      <point x="331" y="601"/>
      <point x="336" y="597" type="curve"/>
      <point x="347" y="585"/>
      <point x="361" y="572"/>
      <point x="382" y="572" type="curve" smooth="yes"/>
      <point x="407" y="572"/>
      <point x="430" y="595"/>
      <point x="430" y="620" type="curve" smooth="yes"/>
      <point x="430" y="677"/>
      <point x="325" y="699"/>
      <point x="291" y="699" type="curve" smooth="yes"/>
      <point x="161" y="699"/>
      <point x="53" y="574"/>
      <point x="53" y="428" type="curve" smooth="yes"/>
      <point x="53" y="365"/>
      <point x="73" y="301"/>
      <point x="111" y="232" type="curve" smooth="yes"/>
      <point x="156" y="152"/>
      <point x="208" y="77"/>
      <point x="260" y="2" type="curve" smooth="yes"/>
      <point x="303" y="-58"/>
      <point x="316" y="-89"/>
      <point x="316" y="-116" type="curve" smooth="yes"/>
      <point x="316" y="-150"/>
      <point x="277" y="-186"/>
      <point x="234" y="-186" type="curve" smooth="yes"/>
      <point x="212" y="-186"/>
      <point x="185" y="-173"/>
      <point x="163" y="-149" type="curve"/>
      <point x="149" y="-132"/>
      <point x="136" y="-111"/>
      <point x="111" y="-111" type="curve" smooth="yes"/>
      <point x="86" y="-111"/>
      <point x="67" y="-137"/>
      <point x="67" y="-160" type="curve" smooth="yes"/>
      <point x="67" y="-207"/>
      <point x="139" y="-237"/>
    </contour>
    <contour>
      <point x="126" y="520" type="curve"/>
      <point x="129" y="530"/>
      <point x="131" y="530"/>
      <point x="135" y="520" type="curve" smooth="yes"/>
      <point x="152" y="477"/>
      <point x="163" y="458"/>
      <point x="191" y="414" type="curve" smooth="yes"/>
      <point x="229" y="354"/>
      <point x="269" y="296"/>
      <point x="307" y="237" type="curve" smooth="yes"/>
      <point x="353" y="165"/>
      <point x="380" y="101"/>
      <point x="380" y="12" type="curve" smooth="yes"/>
      <point x="380" y="-16"/>
      <point x="377" y="-39"/>
      <point x="368" y="-61" type="curve"/>
      <point x="366" y="-67"/>
      <point x="363" y="-68"/>
      <point x="360" y="-60" type="curve" smooth="yes"/>
      <point x="354" y="-44"/>
      <point x="345" y="-27"/>
      <point x="329" y="0" type="curve" smooth="yes"/>
      <point x="275" y="99"/>
      <point x="203" y="186"/>
      <point x="153" y="286" type="curve" smooth="yes"/>
      <point x="117" y="356"/>
      <point x="97" y="443"/>
    </contour>
  </outline>
</glyph>
<glyph name="copyright" format="2">
  <advance width="796"/>
  <unicode hex="00A9"/>
  <outline>
    <contour>
      <point x="400" y="-13" type="curve" smooth="yes"/>
      <point x="597" y="-13"/>
      <point x="760" y="149"/>
      <point x="760" y="348" type="curve" smooth="yes"/>
      <point x="760" y="548"/>
      <point x="597" y="709"/>
      <point x="400" y="709" type="curve" smooth="yes"/>
      <point x="203" y="709"/>
      <point x="40" y="547"/>
      <point x="40" y="348" type="curve" smooth="yes"/>
      <point x="40" y="149"/>
      <point x="203" y="-13"/>
    </contour>
    <contour>
      <point x="400" y="657" type="curve" smooth="yes"/>
      <point x="569" y="657"/>
      <point x="706" y="519"/>
      <point x="706" y="348" type="curve" smooth="yes"/>
      <point x="706" y="178"/>
      <point x="569" y="39"/>
      <point x="400" y="39" type="curve" smooth="yes"/>
      <point x="231" y="39"/>
      <point x="94" y="178"/>
      <point x="94" y="348" type="curve" smooth="yes"/>
      <point x="94" y="519"/>
      <point x="231" y="657"/>
    </contour>
    <contour>
      <point x="395" y="131" type="curve" smooth="yes"/>
      <point x="472" y="131"/>
      <point x="531" y="162"/>
      <point x="579" y="225" type="curve"/>
      <point x="584" y="233"/>
      <point x="586" y="242"/>
      <point x="577" y="246" type="curve"/>
      <point x="567" y="252"/>
      <point x="556" y="261"/>
      <point x="546" y="250" type="curve" smooth="yes"/>
      <point x="504" y="204"/>
      <point x="476" y="180"/>
      <point x="411" y="180" type="curve" smooth="yes"/>
      <point x="321" y="180"/>
      <point x="267" y="242"/>
      <point x="267" y="363" type="curve" smooth="yes"/>
      <point x="267" y="472"/>
      <point x="323" y="535"/>
      <point x="406" y="535" type="curve" smooth="yes"/>
      <point x="467" y="535"/>
      <point x="509" y="506"/>
      <point x="531" y="446" type="curve"/>
      <point x="534" y="442"/>
      <point x="534" y="437"/>
      <point x="536" y="433" type="curve"/>
      <point x="538" y="428"/>
      <point x="541" y="425"/>
      <point x="548" y="425" type="curve" smooth="yes"/>
      <point x="563" y="425" type="line" smooth="yes"/>
      <point x="571" y="425"/>
      <point x="575" y="430"/>
      <point x="575" y="436" type="curve" smooth="yes"/>
      <point x="575" y="439"/>
      <point x="576" y="442"/>
      <point x="575" y="444" type="curve"/>
      <point x="574" y="482"/>
      <point x="567" y="553"/>
      <point x="567" y="562" type="curve"/>
      <point x="566" y="573"/>
      <point x="559" y="577"/>
      <point x="552" y="577" type="curve" smooth="yes"/>
      <point x="530" y="577" type="line"/>
      <point x="523" y="558"/>
      <point x="521" y="556"/>
      <point x="515" y="556" type="curve" smooth="yes"/>
      <point x="513" y="556"/>
      <point x="509" y="556"/>
      <point x="500" y="559" type="curve" smooth="yes"/>
      <point x="453" y="575"/>
      <point x="443" y="577"/>
      <point x="412" y="577" type="curve" smooth="yes"/>
      <point x="274" y="577"/>
      <point x="169" y="480"/>
      <point x="169" y="349" type="curve" smooth="yes"/>
      <point x="169" y="226"/>
      <point x="268" y="131"/>
    </contour>
  </outline>
</glyph>
<glyph name="onequarter" format="2">
  <advance width="715"/>
  <unicode hex="00BC"/>
  <outline>
    <contour>
      <point x="158" y="-24" type="curve" smooth="yes"/>
      <point x="624" y="637" type="line" smooth="yes"/>
      <point x="633" y="649"/>
      <point x="625" y="660"/>
      <point x="619" y="660" type="curve" smooth="yes"/>
      <point x="578" y="660" type="line"/>
      <point x="575" y="660" type="line" smooth="yes"/>
      <point x="571" y="660"/>
      <point x="568" y="660"/>
      <point x="564" y="656" type="curve"/>
      <point x="562" y="651" type="line"/>
      <point x="97" y="-7" type="line" smooth="yes"/>
      <point x="91" y="-15"/>
      <point x="93" y="-34"/>
      <point x="108" y="-34" type="curve" smooth="yes"/>
      <point x="140" y="-34" type="line" smooth="yes"/>
      <point x="148" y="-34"/>
      <point x="154" y="-30"/>
    </contour>
    <contour>
      <point x="127" y="554" type="curve"/>
      <point x="127" y="350" type="line" smooth="yes"/>
      <point x="127" y="339"/>
      <point x="126" y="338"/>
      <point x="115" y="337" type="curve" smooth="yes"/>
      <point x="85" y="335" type="line"/>
      <point x="79" y="335"/>
      <point x="73" y="324"/>
      <point x="72" y="314" type="curve"/>
      <point x="72" y="303"/>
      <point x="78" y="293"/>
      <point x="86" y="293" type="curve" smooth="yes"/>
      <point x="136" y="295"/>
      <point x="193" y="295"/>
      <point x="245" y="293" type="curve" smooth="yes"/>
      <point x="251" y="293"/>
      <point x="257" y="301"/>
      <point x="257" y="314" type="curve" smooth="yes"/>
      <point x="257" y="345"/>
      <point x="232" y="337"/>
      <point x="213" y="338" type="curve" smooth="yes"/>
      <point x="203" y="339"/>
      <point x="203" y="339"/>
      <point x="203" y="351" type="curve" smooth="yes"/>
      <point x="203" y="634" type="line" smooth="yes"/>
      <point x="203" y="644"/>
      <point x="155" y="645"/>
      <point x="151" y="640" type="curve" smooth="yes"/>
      <point x="133" y="617"/>
      <point x="91" y="585"/>
      <point x="51" y="561" type="curve"/>
      <point x="41" y="548"/>
      <point x="52" y="528"/>
      <point x="70" y="528" type="curve"/>
      <point x="89" y="537"/>
      <point x="109" y="543"/>
    </contour>
    <contour>
      <point x="665" y="84" type="line" smooth="yes"/>
      <point x="669" y="84"/>
      <point x="674" y="87"/>
      <point x="677" y="92" type="curve"/>
      <point x="680" y="99"/>
      <point x="679" y="120"/>
      <point x="679" y="124" type="curve" smooth="yes"/>
      <point x="679" y="135"/>
      <point x="675" y="141"/>
      <point x="660" y="141" type="curve" smooth="yes"/>
      <point x="620" y="141" type="line" smooth="yes"/>
      <point x="619" y="141"/>
      <point x="616" y="144"/>
      <point x="616" y="151" type="curve" smooth="yes"/>
      <point x="616" y="327" type="line"/>
      <point x="617" y="338"/>
      <point x="609" y="343"/>
      <point x="602" y="345" type="curve"/>
      <point x="589" y="348"/>
      <point x="582" y="346"/>
      <point x="570" y="342" type="curve"/>
      <point x="394" y="117" type="line"/>
      <point x="394" y="95" type="line"/>
      <point x="393" y="86"/>
      <point x="398" y="84"/>
      <point x="409" y="84" type="curve" smooth="yes"/>
      <point x="534" y="84" type="line" smooth="yes"/>
      <point x="537" y="84"/>
      <point x="539" y="83"/>
      <point x="541" y="65" type="curve"/>
      <point x="540" y="-7" type="line"/>
      <point x="542" y="-15"/>
      <point x="546" y="-19"/>
      <point x="553" y="-20" type="curve"/>
      <point x="558" y="-22"/>
      <point x="601" y="-20"/>
      <point x="602" y="-20" type="curve" smooth="yes"/>
      <point x="618" y="-20"/>
      <point x="617" y="-15"/>
      <point x="617" y="-3" type="curve" smooth="yes"/>
      <point x="616" y="67" type="line" smooth="yes"/>
      <point x="616" y="79"/>
      <point x="616" y="83"/>
      <point x="621" y="84" type="curve"/>
    </contour>
    <contour>
      <point x="475" y="141" type="line"/>
      <point x="540" y="228" type="line"/>
      <point x="540" y="146" type="line" smooth="yes"/>
      <point x="540" y="141"/>
      <point x="533" y="141"/>
      <point x="528" y="141" type="curve" smooth="yes"/>
    </contour>
  </outline>
</glyph>
<glyph name="Atilde" format="2">
  <advance width="711"/>
  <unicode hex="00C3"/>
  <outline>
    <contour>
      <point x="508" y="859" type="curve" smooth="yes"/>
      <point x="508" y="862"/>
      <point x="508" y="866"/>
      <point x="506" y="873" type="curve"/>
      <point x="506" y="881"/>
      <point x="495" y="884"/>
      <point x="489" y="883" type="curve"/>
      <point x="481" y="883"/>
      <point x="472" y="878"/>
      <point x="471" y="872" type="curve" smooth="yes"/>
      <point x="464" y="819"/>
      <point x="453" y="812"/>
      <point x="438" y="812" type="curve" smooth="yes"/>
      <point x="428" y="812"/>
      <point x="413" y="817"/>
      <point x="383" y="838" type="curve" smooth="yes"/>
      <point x="339" y="868"/>
      <point x="315" y="878"/>
      <point x="284" y="878" type="curve" smooth="yes"/>
      <point x="220" y="878"/>
      <point x="187" y="826"/>
      <point x="183" y="740" type="curve"/>
      <point x="186" y="722"/>
      <point x="214" y="727"/>
      <point x="220" y="739" type="curve"/>
      <point x="221" y="745"/>
      <point x="223" y="751"/>
      <point x="223" y="757" type="curve"/>
      <point x="231" y="792"/>
      <point x="239" y="799"/>
      <point x="254" y="799" type="curve" smooth="yes"/>
      <point x="265" y="799"/>
      <point x="272" y="796"/>
      <point x="308" y="771" type="curve" smooth="yes"/>
      <point x="346" y="745"/>
      <point x="378" y="732"/>
      <point x="406" y="732" type="curve" smooth="yes"/>
      <point x="467" y="732"/>
      <point x="508" y="787"/>
    </contour>
    <contour>
      <point x="413" y="-3" type="curve" smooth="yes"/>
      <point x="483" y="-1"/>
      <point x="613" y="-1"/>
      <point x="676" y="-4" type="curve" smooth="yes"/>
      <point x="697" y="-5"/>
      <point x="695" y="42"/>
      <point x="677" y="42" type="curve" smooth="yes"/>
      <point x="670" y="42" type="line" smooth="yes"/>
      <point x="628" y="42"/>
      <point x="621" y="51"/>
      <point x="605" y="95" type="curve" smooth="yes"/>
      <point x="596" y="120"/>
      <point x="587" y="146"/>
      <point x="578" y="172" type="curve" smooth="yes"/>
      <point x="556" y="229"/>
      <point x="510" y="353"/>
      <point x="393" y="659" type="curve"/>
      <point x="383" y="674"/>
      <point x="362" y="672"/>
      <point x="346" y="672" type="curve" smooth="yes"/>
      <point x="344" y="672"/>
      <point x="323" y="672"/>
      <point x="314" y="672" type="curve"/>
      <point x="301" y="671"/>
      <point x="292" y="664"/>
      <point x="294" y="657" type="curve" smooth="yes"/>
      <point x="300" y="633" type="line"/>
      <point x="116" y="132" type="line" smooth="yes"/>
      <point x="112" y="121"/>
      <point x="106" y="107"/>
      <point x="100" y="92" type="curve" smooth="yes"/>
      <point x="81" y="47"/>
      <point x="76" y="45"/>
      <point x="28" y="45" type="curve" smooth="yes"/>
      <point x="24" y="45"/>
      <point x="16" y="42"/>
      <point x="14" y="33" type="curve" smooth="yes"/>
      <point x="12" y="22"/>
      <point x="13" y="0"/>
      <point x="28" y="-3" type="curve"/>
      <point x="32" y="-3"/>
      <point x="35" y="-3"/>
      <point x="39" y="-3" type="curve"/>
      <point x="92" y="0"/>
      <point x="194" y="-2"/>
      <point x="253" y="-3" type="curve" smooth="yes"/>
      <point x="257" y="-3"/>
      <point x="264" y="8"/>
      <point x="265" y="19" type="curve"/>
      <point x="265" y="30"/>
      <point x="260" y="43"/>
      <point x="253" y="44" type="curve" smooth="yes"/>
      <point x="245" y="45"/>
      <point x="239" y="45"/>
      <point x="233" y="44" type="curve"/>
      <point x="214" y="42"/>
      <point x="169" y="42"/>
      <point x="169" y="65" type="curve" smooth="yes"/>
      <point x="169" y="73"/>
      <point x="170" y="83"/>
      <point x="174" y="95" type="curve" smooth="yes"/>
      <point x="189" y="135"/>
      <point x="218" y="212"/>
      <point x="236" y="265" type="curve"/>
      <point x="240" y="271"/>
      <point x="246" y="279"/>
      <point x="256" y="278" type="curve"/>
      <point x="292" y="278"/>
      <point x="360" y="279"/>
      <point x="405" y="278" type="curve" smooth="yes"/>
      <point x="414" y="278"/>
      <point x="424" y="273"/>
      <point x="426" y="269" type="curve"/>
      <point x="449" y="206"/>
      <point x="469" y="152"/>
      <point x="493" y="89" type="curve" smooth="yes"/>
      <point x="503" y="61"/>
      <point x="495" y="48"/>
      <point x="463" y="46" type="curve"/>
      <point x="452" y="46"/>
      <point x="440" y="45"/>
      <point x="422" y="45" type="curve" smooth="yes"/>
      <point x="410" y="45"/>
      <point x="396" y="42"/>
      <point x="396" y="22" type="curve" smooth="yes"/>
      <point x="396" y="10"/>
      <point x="397" y="-3"/>
    </contour>
    <contour>
      <point x="326" y="512" type="curve" smooth="yes"/>
      <point x="332" y="531"/>
      <point x="335" y="528"/>
      <point x="338" y="521" type="curve"/>
      <point x="353" y="471"/>
      <point x="377" y="398"/>
      <point x="392" y="358" type="curve" smooth="yes"/>
      <point x="394" y="353"/>
      <point x="390" y="345"/>
      <point x="387" y="345" type="curve" smooth="yes"/>
      <point x="358" y="346"/>
      <point x="310" y="346"/>
      <point x="275" y="345" type="curve"/>
      <point x="272" y="347"/>
      <point x="267" y="348"/>
      <point x="268" y="353" type="curve"/>
      <point x="283" y="393"/>
      <point x="309" y="460"/>
    </contour>
  </outline>
</glyph>
<glyph name="Eacute" format="2">
  <advance width="619"/>
  <unicode hex="00C9"/>
  <outline>
    <contour>
      <point x="425" y="868" type="line"/>
      <point x="425" y="868"/>
      <point x="425" y="868"/>
      <point x="426" y="869" type="curve"/>
      <point x="427" y="882"/>
      <point x="417" y="886"/>
      <point x="407" y="886" type="curve" smooth="yes"/>
      <point x="320" y="885" type="line" smooth="yes"/>
      <point x="311" y="885"/>
      <point x="300" y="879"/>
      <point x="297" y="868" type="curve" smooth="yes"/>
      <point x="249" y="706" type="line" smooth="yes"/>
      <point x="242" y="684"/>
      <point x="274" y="683"/>
      <point x="283" y="692" type="curve"/>
      <point x="423" y="862" type="line"/>
      <point x="424" y="863"/>
      <point x="424" y="865"/>
      <point x="425" y="866" type="curve"/>
    </contour>
    <contour>
      <point x="565" y="17" type="curve" smooth="yes"/>
      <point x="568" y="44"/>
      <point x="578" y="92"/>
      <point x="579" y="164" type="curve"/>
      <point x="576" y="170"/>
      <point x="564" y="173"/>
      <point x="552" y="172" type="curve"/>
      <point x="546" y="170"/>
      <point x="540" y="167"/>
      <point x="538" y="157" type="curve"/>
      <point x="529" y="122"/>
      <point x="516" y="95"/>
      <point x="503" y="79" type="curve" smooth="yes"/>
      <point x="488" y="61"/>
      <point x="475" y="57"/>
      <point x="401" y="57" type="curve" smooth="yes"/>
      <point x="323" y="57" type="line" smooth="yes"/>
      <point x="254" y="57"/>
      <point x="254" y="58"/>
      <point x="254" y="132" type="curve" smooth="yes"/>
      <point x="254" y="298" type="line" smooth="yes"/>
      <point x="254" y="304"/>
      <point x="258" y="306"/>
      <point x="263" y="307" type="curve"/>
      <point x="376" y="307" type="line" smooth="yes"/>
      <point x="451" y="307"/>
      <point x="452" y="304"/>
      <point x="462" y="239" type="curve" smooth="yes"/>
      <point x="464" y="227"/>
      <point x="502" y="220"/>
      <point x="503" y="248" type="curve" smooth="yes"/>
      <point x="503" y="292"/>
      <point x="505" y="374"/>
      <point x="503" y="425" type="curve"/>
      <point x="496" y="463"/>
      <point x="464" y="436"/>
      <point x="463" y="435" type="curve"/>
      <point x="454" y="367"/>
      <point x="453" y="366"/>
      <point x="378" y="366" type="curve" smooth="yes"/>
      <point x="263" y="366" type="line" smooth="yes"/>
      <point x="261" y="366"/>
      <point x="254" y="372"/>
      <point x="254" y="382" type="curve" smooth="yes"/>
      <point x="254" y="581" type="line" smooth="yes"/>
      <point x="254" y="586"/>
      <point x="263" y="597"/>
      <point x="268" y="598" type="curve"/>
      <point x="309" y="599"/>
      <point x="366" y="597"/>
      <point x="399" y="597" type="curve" smooth="yes"/>
      <point x="476" y="595"/>
      <point x="487" y="588"/>
      <point x="500" y="510" type="curve"/>
      <point x="500" y="505"/>
      <point x="501" y="496"/>
      <point x="511" y="494" type="curve"/>
      <point x="522" y="490"/>
      <point x="539" y="492"/>
      <point x="541" y="502" type="curve"/>
      <point x="539" y="531"/>
      <point x="540" y="566"/>
      <point x="532" y="638" type="curve" smooth="yes"/>
      <point x="531" y="647"/>
      <point x="520" y="653"/>
      <point x="508" y="653" type="curve" smooth="yes"/>
      <point x="413" y="655"/>
      <point x="201" y="654"/>
      <point x="71" y="653" type="curve" smooth="yes"/>
      <point x="62" y="653"/>
      <point x="54" y="655"/>
      <point x="49" y="645" type="curve"/>
      <point x="45" y="638"/>
      <point x="41" y="626"/>
      <point x="45" y="619" type="curve" smooth="yes"/>
      <point x="53" y="605"/>
      <point x="64" y="607"/>
      <point x="77" y="607" type="curve" smooth="yes"/>
      <point x="145" y="607"/>
      <point x="149" y="592"/>
      <point x="149" y="513" type="curve" smooth="yes"/>
      <point x="149" y="138" type="line" smooth="yes"/>
      <point x="149" y="54"/>
      <point x="141" y="47"/>
      <point x="81" y="45" type="curve" smooth="yes"/>
      <point x="66" y="45"/>
      <point x="53" y="46"/>
      <point x="39" y="44" type="curve" smooth="yes"/>
      <point x="22" y="42"/>
      <point x="15" y="2"/>
      <point x="37" y="-2" type="curve" smooth="yes"/>
      <point x="42" y="-3" type="line"/>
      <point x="172" y="-2"/>
      <point x="387" y="-2"/>
      <point x="521" y="-2" type="curve" smooth="yes"/>
      <point x="535" y="-2"/>
      <point x="563" y="-4"/>
    </contour>
  </outline>
</glyph>
<glyph name="Ocircumflex" format="2">
  <advance width="827"/>
  <unicode hex="00D4"/>
  <outline>
    <contour>
      <point x="543" y="691" type="line"/>
      <point x="548" y="685"/>
      <point x="562" y="686"/>
      <point x="568" y="687" type="curve"/>
      <point x="577" y="690"/>
      <point x="576" y="700"/>
      <point x="571" y="708" type="curve" smooth="yes"/>
      <point x="486" y="858" type="line" smooth="yes"/>
      <point x="480" y="868"/>
      <point x="476" y="870"/>
      <point x="465" y="871" type="curve" smooth="yes"/>
      <point x="452" y="872"/>
      <point x="397" y="871"/>
      <point x="389" y="870" type="curve"/>
      <point x="383" y="868"/>
      <point x="377" y="864"/>
      <point x="373" y="857" type="curve" smooth="yes"/>
      <point x="285" y="703" type="line" smooth="yes"/>
      <point x="277" y="689"/>
      <point x="305" y="680"/>
      <point x="317" y="691" type="curve" smooth="yes"/>
      <point x="427" y="790" type="line"/>
    </contour>
    <contour>
      <point x="413" y="-19" type="curve" smooth="yes"/>
      <point x="619" y="-19"/>
      <point x="772" y="138"/>
      <point x="772" y="339" type="curve" smooth="yes"/>
      <point x="772" y="527"/>
      <point x="623" y="667"/>
      <point x="415" y="667" type="curve" smooth="yes"/>
      <point x="202" y="667"/>
      <point x="50" y="515"/>
      <point x="50" y="312" type="curve" smooth="yes"/>
      <point x="50" y="125"/>
      <point x="205" y="-19"/>
    </contour>
    <contour>
      <point x="387" y="619" type="curve" smooth="yes"/>
      <point x="546" y="619"/>
      <point x="651" y="491"/>
      <point x="651" y="309" type="curve" smooth="yes"/>
      <point x="651" y="160"/>
      <point x="598" y="30"/>
      <point x="430" y="30" type="curve" smooth="yes"/>
      <point x="278" y="30"/>
      <point x="171" y="162"/>
      <point x="171" y="338" type="curve" smooth="yes"/>
      <point x="171" y="506"/>
      <point x="256" y="619"/>
    </contour>
  </outline>
</glyph>
<glyph name="Odieresis" format="2">
  <advance width="827"/>
  <unicode hex="00D6"/>
  <outline>
    <contour>
      <point x="502" y="695" type="curve" smooth="yes"/>
      <point x="538" y="695"/>
      <point x="567" y="724"/>
      <point x="567" y="759" type="curve" smooth="yes"/>
      <point x="567" y="795"/>
      <point x="538" y="824"/>
      <point x="502" y="824" type="curve" smooth="yes"/>
      <point x="466" y="824"/>
      <point x="437" y="795"/>
      <point x="437" y="759" type="curve" smooth="yes"/>
      <point x="437" y="724"/>
      <point x="466" y="695"/>
    </contour>
    <contour>
      <point x="327" y="695" type="curve" smooth="yes"/>
      <point x="363" y="695"/>
      <point x="392" y="723"/>
      <point x="392" y="759" type="curve" smooth="yes"/>
      <point x="392" y="795"/>
      <point x="363" y="824"/>
      <point x="327" y="824" type="curve" smooth="yes"/>
      <point x="292" y="824"/>
      <point x="262" y="795"/>
      <point x="262" y="759" type="curve" smooth="yes"/>
      <point x="262" y="723"/>
      <point x="292" y="695"/>
    </contour>
    <contour>
      <point x="413" y="-19" type="curve" smooth="yes"/>
      <point x="619" y="-19"/>
      <point x="772" y="138"/>
      <point x="772" y="339" type="curve" smooth="yes"/>
      <point x="772" y="527"/>
      <point x="623" y="667"/>
      <point x="415" y="667" type="curve" smooth="yes"/>
      <point x="202" y="667"/>
      <point x="50" y="515"/>
      <point x="50" y="312" type="curve" smooth="yes"/>
      <point x="50" y="125"/>
      <point x="205" y="-19"/>
    </contour>
    <contour>
      <point x="387" y="619" type="curve" smooth="yes"/>
      <point x="546" y="619"/>
      <point x="651" y="491"/>
      <point x="651" y="309" type="curve" smooth="yes"/>
      <point x="651" y="160"/>
      <point x="598" y="30"/>
      <point x="430" y="30" type="curve" smooth="yes"/>
      <point x="278" y="30"/>
      <point x="171" y="162"/>
      <point x="171" y="338" type="curve" smooth="yes"/>
      <point x="171" y="506"/>
      <point x="256" y="619"/>
    </contour>
  </outline>
</glyph>
<glyph name="idieresis" format="2">
  <advance width="266"/>
  <unicode hex="00EF"/>
  <outline>
    <contour>
      <point x="219" y="481" type="curve" smooth="yes"/>
      <point x="255" y="481"/>
      <point x="282" y="508"/>
      <point x="282" y="541" type="curve" smooth="yes"/>
      <point x="282" y="574"/>
      <point x="255" y="601"/>
      <point x="219" y="601" type="curve" smooth="yes"/>
      <point x="184" y="601"/>
      <point x="155" y="574"/>
      <point x="155" y="541" type="curve" smooth="yes"/>
      <point x="155" y="508"/>
      <point x="184" y="481"/>
    </contour>
    <contour>
      <point x="47" y="481" type="curve" smooth="yes"/>
      <point x="82" y="481"/>
      <point x="111" y="507"/>
      <point x="111" y="541" type="curve" smooth="yes"/>
      <point x="111" y="574"/>
      <point x="83" y="601"/>
      <point x="47" y="601" type="curve" smooth="yes"/>
      <point x="12" y="601"/>
      <point x="-16" y="574"/>
      <point x="-16" y="541" type="curve" smooth="yes"/>
      <point x="-16" y="507"/>
      <point x="12" y="481"/>
    </contour>
    <contour>
      <point x="247" y="10" type="curve" smooth="yes"/>
      <point x="247" y="13"/>
      <point x="247" y="25"/>
      <point x="247" y="28" type="curve"/>
      <point x="245" y="40"/>
      <point x="237" y="45"/>
      <point x="224" y="44" type="curve"/>
      <point x="187" y="44"/>
      <point x="185" y="45"/>
      <point x="183" y="77" type="curve" smooth="yes"/>
      <point x="182" y="91"/>
      <point x="182" y="108"/>
      <point x="182" y="128" type="curve" smooth="yes"/>
      <point x="182" y="412" type="line" smooth="yes"/>
      <point x="182" y="427"/>
      <point x="179" y="450"/>
      <point x="151" y="441" type="curve" smooth="yes"/>
      <point x="111" y="428"/>
      <point x="67" y="412"/>
      <point x="33" y="399" type="curve"/>
      <point x="25" y="393"/>
      <point x="23" y="368"/>
      <point x="35" y="364" type="curve" smooth="yes"/>
      <point x="49" y="360"/>
      <point x="59" y="356"/>
      <point x="74" y="353" type="curve" smooth="yes"/>
      <point x="79" y="352"/>
      <point x="89" y="351"/>
      <point x="92" y="346" type="curve"/>
      <point x="95" y="340"/>
      <point x="95" y="330"/>
      <point x="95" y="304" type="curve" smooth="yes"/>
      <point x="95" y="128" type="line" smooth="yes"/>
      <point x="95" y="53"/>
      <point x="102" y="47"/>
      <point x="32" y="41" type="curve"/>
      <point x="23" y="41"/>
      <point x="19" y="28"/>
      <point x="20" y="17" type="curve" smooth="yes"/>
      <point x="21" y="7"/>
      <point x="29" y="-3"/>
      <point x="34" y="-3" type="curve" smooth="yes"/>
      <point x="83" y="-2"/>
      <point x="181" y="0"/>
      <point x="227" y="-3" type="curve" smooth="yes"/>
      <point x="240" y="-4"/>
      <point x="247" y="0"/>
    </contour>
  </outline>
</glyph>
<glyph name="ntilde" format="2">
  <advance width="523"/>
  <unicode hex="00F1"/>
  <outline>
    <contour>
      <point x="426" y="619" type="curve" smooth="yes"/>
      <point x="426" y="622"/>
      <point x="426" y="626"/>
      <point x="424" y="633" type="curve"/>
      <point x="424" y="641"/>
      <point x="413" y="644"/>
      <point x="407" y="643" type="curve"/>
      <point x="399" y="643"/>
      <point x="390" y="638"/>
      <point x="389" y="632" type="curve" smooth="yes"/>
      <point x="382" y="579"/>
      <point x="371" y="572"/>
      <point x="356" y="572" type="curve" smooth="yes"/>
      <point x="346" y="572"/>
      <point x="331" y="577"/>
      <point x="301" y="598" type="curve" smooth="yes"/>
      <point x="257" y="628"/>
      <point x="233" y="638"/>
      <point x="202" y="638" type="curve" smooth="yes"/>
      <point x="138" y="638"/>
      <point x="105" y="586"/>
      <point x="101" y="500" type="curve"/>
      <point x="104" y="482"/>
      <point x="132" y="487"/>
      <point x="138" y="499" type="curve"/>
      <point x="139" y="505"/>
      <point x="141" y="511"/>
      <point x="141" y="517" type="curve"/>
      <point x="149" y="552"/>
      <point x="157" y="559"/>
      <point x="172" y="559" type="curve" smooth="yes"/>
      <point x="183" y="559"/>
      <point x="190" y="556"/>
      <point x="226" y="531" type="curve" smooth="yes"/>
      <point x="264" y="505"/>
      <point x="296" y="492"/>
      <point x="324" y="492" type="curve" smooth="yes"/>
      <point x="385" y="492"/>
      <point x="426" y="547"/>
    </contour>
    <contour>
      <point x="506" y="36" type="curve"/>
      <point x="501" y="43"/>
      <point x="492" y="45"/>
      <point x="485" y="41" type="curve"/>
      <point x="446" y="41"/>
      <point x="443" y="47"/>
      <point x="443" y="71" type="curve" smooth="yes"/>
      <point x="443" y="131"/>
      <point x="450" y="190"/>
      <point x="450" y="249" type="curve" smooth="yes"/>
      <point x="450" y="319"/>
      <point x="440" y="431"/>
      <point x="336" y="431" type="curve" smooth="yes"/>
      <point x="288" y="431"/>
      <point x="230" y="392"/>
      <point x="190" y="364" type="curve"/>
      <point x="185" y="361"/>
      <point x="182" y="371"/>
      <point x="182" y="378" type="curve" smooth="yes"/>
      <point x="182" y="422" type="line" smooth="yes"/>
      <point x="182" y="443"/>
      <point x="173" y="449"/>
      <point x="152" y="444" type="curve" smooth="yes"/>
      <point x="143" y="442"/>
      <point x="133" y="438"/>
      <point x="123" y="434" type="curve" smooth="yes"/>
      <point x="96" y="424"/>
      <point x="57" y="408"/>
      <point x="37" y="402" type="curve"/>
      <point x="27" y="397"/>
      <point x="23" y="367"/>
      <point x="37" y="365" type="curve"/>
      <point x="57" y="361" type="line" smooth="yes"/>
      <point x="88" y="354"/>
      <point x="88" y="352"/>
      <point x="90" y="348" type="curve"/>
      <point x="92" y="343"/>
      <point x="93" y="328"/>
      <point x="93" y="271" type="curve" smooth="yes"/>
      <point x="93" y="136" type="line" smooth="yes"/>
      <point x="93" y="48"/>
      <point x="84" y="39"/>
      <point x="44" y="39" type="curve" smooth="yes"/>
      <point x="38" y="39" type="line" smooth="yes"/>
      <point x="25" y="39"/>
      <point x="21" y="18"/>
      <point x="25" y="6" type="curve"/>
      <point x="28" y="0"/>
      <point x="34" y="-2"/>
      <point x="40" y="-2" type="curve" smooth="yes"/>
      <point x="44" y="-2" type="line" smooth="yes"/>
      <point x="95" y="-4"/>
      <point x="181" y="-1"/>
      <point x="231" y="-3" type="curve"/>
      <point x="245" y="-2"/>
      <point x="250" y="5"/>
      <point x="250" y="19" type="curve"/>
      <point x="249" y="29"/>
      <point x="242" y="41"/>
      <point x="236" y="41" type="curve" smooth="yes"/>
      <point x="189" y="41"/>
      <point x="182" y="45"/>
      <point x="182" y="93" type="curve" smooth="yes"/>
      <point x="182" y="312" type="line"/>
      <point x="225" y="345"/>
      <point x="271" y="367"/>
      <point x="296" y="367" type="curve" smooth="yes"/>
      <point x="339" y="367"/>
      <point x="361" y="339"/>
      <point x="361" y="264" type="curve" smooth="yes"/>
      <point x="361" y="206"/>
      <point x="361" y="148"/>
      <point x="355" y="91" type="curve" smooth="yes"/>
      <point x="352" y="54"/>
      <point x="343" y="45"/>
      <point x="302" y="41" type="curve"/>
      <point x="295" y="41" type="line" smooth="yes"/>
      <point x="287" y="41"/>
      <point x="282" y="29"/>
      <point x="282" y="19" type="curve"/>
      <point x="283" y="4"/>
      <point x="287" y="-3"/>
      <point x="303" y="-2" type="curve" smooth="yes"/>
      <point x="354" y="0"/>
      <point x="440" y="-3"/>
      <point x="489" y="-2" type="curve" smooth="yes"/>
      <point x="493" y="-2"/>
      <point x="498" y="-2"/>
      <point x="502" y="-1" type="curve"/>
      <point x="512" y="4"/>
      <point x="511" y="28"/>
    </contour>
  </outline>
</glyph>
<glyph name="thorn" format="2">
  <advance width="523"/>
  <unicode hex="00FE"/>
  <outline>
    <contour>
      <point x="253" y="-4" type="curve" smooth="yes"/>
      <point x="375" y="-4"/>
      <point x="480" y="109"/>
      <point x="480" y="238" type="curve" smooth="yes"/>
      <point x="480" y="344"/>
      <point x="406" y="443"/>
      <point x="318" y="443" type="curve" smooth="yes"/>
      <point x="277" y="443"/>
      <point x="240" y="426"/>
      <point x="176" y="382" type="curve"/>
      <point x="174" y="380"/>
      <point x="175" y="383"/>
      <point x="175" y="385" type="curve"/>
      <point x="173" y="391"/>
      <point x="172" y="399"/>
      <point x="172" y="407" type="curve" smooth="yes"/>
      <point x="172" y="688" type="line" smooth="yes"/>
      <point x="172" y="715"/>
      <point x="158" y="716"/>
      <point x="137" y="709" type="curve"/>
      <point x="30" y="642" type="line"/>
      <point x="28" y="641"/>
      <point x="26" y="640"/>
      <point x="25" y="639" type="curve"/>
      <point x="20" y="636"/>
      <point x="18" y="633"/>
      <point x="19" y="628" type="curve"/>
      <point x="19" y="625" type="line" smooth="yes"/>
      <point x="19" y="596"/>
      <point x="38" y="597"/>
      <point x="61" y="591" type="curve"/>
      <point x="80" y="585"/>
      <point x="82" y="584"/>
      <point x="82" y="563" type="curve" smooth="yes"/>
      <point x="82" y="537" type="line"/>
      <point x="82" y="-107" type="line" smooth="yes"/>
      <point x="82" y="-205"/>
      <point x="74" y="-207"/>
      <point x="32" y="-208" type="curve" smooth="yes"/>
      <point x="23" y="-208"/>
      <point x="5" y="-201"/>
      <point x="4" y="-220" type="curve" smooth="yes"/>
      <point x="3" y="-235"/>
      <point x="-1" y="-253"/>
      <point x="22" y="-252" type="curve" smooth="yes"/>
      <point x="69" y="-250"/>
      <point x="192" y="-251"/>
      <point x="246" y="-252" type="curve" smooth="yes"/>
      <point x="271" y="-253"/>
      <point x="268" y="-241"/>
      <point x="266" y="-224" type="curve" smooth="yes"/>
      <point x="264" y="-211"/>
      <point x="260" y="-205"/>
      <point x="245" y="-207" type="curve"/>
      <point x="230" y="-208" type="line" smooth="yes"/>
      <point x="181" y="-211"/>
      <point x="172" y="-195"/>
      <point x="172" y="-107" type="curve" smooth="yes"/>
      <point x="172" y="-6" type="line" smooth="yes"/>
      <point x="172" y="2"/>
      <point x="169" y="12"/>
      <point x="175" y="10" type="curve" smooth="yes"/>
      <point x="205" y="0"/>
      <point x="229" y="-4"/>
    </contour>
    <contour>
      <point x="268" y="370" type="curve" smooth="yes"/>
      <point x="334" y="370"/>
      <point x="390" y="299"/>
      <point x="390" y="199" type="curve" smooth="yes"/>
      <point x="390" y="111"/>
      <point x="341" y="51"/>
      <point x="281" y="51" type="curve" smooth="yes"/>
      <point x="248" y="51"/>
      <point x="206" y="69"/>
      <point x="172" y="101" type="curve"/>
      <point x="172" y="325" type="line"/>
      <point x="206" y="355"/>
      <point x="240" y="370"/>
    </contour>
  </outline>
</glyph>
<glyph name="dotlessi" format="2">
  <advance width="266"/>
  <unicode hex="0131"/>
  <outline>
    <contour>
      <point x="33" y="-2" type="curve" smooth="yes"/>
      <point x="97" y="-1"/>
      <point x="185" y="-1"/>
      <point x="234" y="-2" type="curve" smooth="yes"/>
      <point x="237" y="-2"/>
      <point x="245" y="8"/>
      <point x="245" y="18" type="curve"/>
      <point x="246" y="25"/>
      <point x="244" y="38"/>
      <point x="235" y="40" type="curve"/>
      <point x="224" y="40" type="line" smooth="yes"/>
      <point x="187" y="40"/>
      <point x="183" y="43"/>
      <point x="181" y="77" type="curve" smooth="yes"/>
      <point x="180" y="90"/>
      <point x="180" y="107"/>
      <point x="180" y="127" type="curve" smooth="yes"/>
      <point x="180" y="420" type="line" smooth="yes"/>
      <point x="180" y="439"/>
      <point x="170" y="444"/>
      <point x="154" y="439" type="curve" smooth="yes"/>
      <point x="32" y="396" type="line"/>
      <point x="24" y="390"/>
      <point x="22" y="365"/>
      <point x="34" y="361" type="curve" smooth="yes"/>
      <point x="48" y="357"/>
      <point x="59" y="353"/>
      <point x="74" y="350" type="curve" smooth="yes"/>
      <point x="79" y="349"/>
      <point x="89" y="348"/>
      <point x="92" y="343" type="curve"/>
      <point x="95" y="337"/>
      <point x="95" y="327"/>
      <point x="95" y="302" type="curve" smooth="yes"/>
      <point x="95" y="127" type="line" smooth="yes"/>
      <point x="95" y="44"/>
      <point x="94" y="40"/>
      <point x="43" y="40" type="curve" smooth="yes"/>
      <point x="31" y="40" type="line" smooth="yes"/>
      <point x="23" y="40"/>
      <point x="18" y="29"/>
      <point x="19" y="17" type="curve" smooth="yes"/>
      <point x="20" y="7"/>
      <point x="28" y="-2"/>
    </contour>
  </outline>
</glyph>
<glyph name="Zcaron" format="2">
  <advance width="705"/>
  <unicode hex="017D"/>
  <outline>
    <contour>
      <point x="411" y="702" type="curve"/>
      <point x="507" y="872" type="line"/>
      <point x="509" y="878"/>
      <point x="501" y="885"/>
      <point x="490" y="885" type="curve" smooth="yes"/>
      <point x="483" y="885"/>
      <point x="476" y="883"/>
      <point x="472" y="880" type="curve"/>
      <point x="364" y="779" type="line"/>
      <point x="236" y="880" type="line"/>
      <point x="232" y="884"/>
      <point x="223" y="886"/>
      <point x="216" y="886" type="curve" smooth="yes"/>
      <point x="212" y="886"/>
      <point x="208" y="886"/>
      <point x="206" y="884" type="curve"/>
      <point x="203" y="883"/>
      <point x="198" y="878"/>
      <point x="202" y="871" type="curve" smooth="yes"/>
      <point x="296" y="707" type="line"/>
      <point x="298" y="699"/>
      <point x="309" y="695"/>
      <point x="318" y="695" type="curve" smooth="yes"/>
      <point x="393" y="695" type="line" smooth="yes"/>
      <point x="402" y="695"/>
      <point x="405" y="697"/>
    </contour>
    <contour>
      <point x="128" y="492" type="curve"/>
      <point x="128" y="492" type="line"/>
      <point x="140" y="587"/>
      <point x="151" y="592"/>
      <point x="246" y="592" type="curve" smooth="yes"/>
      <point x="448" y="592" type="line" smooth="yes"/>
      <point x="451" y="592"/>
      <point x="454" y="581"/>
      <point x="449" y="575" type="curve" smooth="yes"/>
      <point x="42" y="38" type="line" smooth="yes"/>
      <point x="39" y="34"/>
      <point x="36" y="26"/>
      <point x="36" y="21" type="curve"/>
      <point x="34" y="3"/>
      <point x="50" y="-2"/>
      <point x="61" y="-2" type="curve" smooth="yes"/>
      <point x="73" y="-2"/>
      <point x="167" y="-3"/>
      <point x="276" y="-3" type="curve" smooth="yes"/>
      <point x="388" y="-3"/>
      <point x="518" y="-2"/>
      <point x="588" y="-2" type="curve" smooth="yes"/>
      <point x="595" y="-2"/>
      <point x="621" y="2"/>
      <point x="623" y="14" type="curve"/>
      <point x="628" y="60"/>
      <point x="635" y="147"/>
      <point x="637" y="196" type="curve" smooth="yes"/>
      <point x="637" y="209"/>
      <point x="600" y="208"/>
      <point x="591" y="196" type="curve"/>
      <point x="581" y="98"/>
      <point x="565" y="58"/>
      <point x="457" y="58" type="curve" smooth="yes"/>
      <point x="227" y="58" type="line" smooth="yes"/>
      <point x="221" y="58"/>
      <point x="184" y="58"/>
      <point x="198" y="72" type="curve"/>
      <point x="610" y="611" type="line"/>
      <point x="627" y="638"/>
      <point x="606" y="650"/>
      <point x="585" y="650" type="curve" smooth="yes"/>
      <point x="118" y="650" type="line"/>
      <point x="109" y="649"/>
      <point x="94" y="645"/>
      <point x="91" y="636" type="curve"/>
      <point x="87" y="602"/>
      <point x="86" y="533"/>
      <point x="86" y="496" type="curve"/>
      <point x="94" y="477"/>
      <point x="127" y="482"/>
    </contour>
  </outline>
</glyph>
<glyph name="ogonek" format="2">
  <advance width="349"/>
  <unicode hex="02DB"/>
  <outline>
    <contour>
      <point x="194" y="-191" type="curve" smooth="yes"/>
      <point x="234" y="-191"/>
      <point x="255" y="-184"/>
      <point x="320" y="-147" type="curve"/>
      <point x="300" y="-116" type="line"/>
      <point x="271" y="-126"/>
      <point x="255" y="-129"/>
      <point x="237" y="-129" type="curve" smooth="yes"/>
      <point x="183" y="-129"/>
      <point x="146" y="-93"/>
      <point x="146" y="-46" type="curve" smooth="yes"/>
      <point x="146" y="-30"/>
      <point x="147" y="-22"/>
      <point x="165" y="13" type="curve"/>
      <point x="117" y="13" type="line"/>
      <point x="89" y="-15"/>
      <point x="73" y="-53"/>
      <point x="73" y="-90" type="curve" smooth="yes"/>
      <point x="73" y="-153"/>
      <point x="124" y="-191"/>
    </contour>
  </outline>
</glyph>
<glyph name="emdash" format="2">
  <advance width="855"/>
  <unicode hex="2014"/>
  <outline>
    <contour>
      <point x="764" y="233" type="curve" smooth="yes"/>
      <point x="767" y="250"/>
      <point x="762" y="258"/>
      <point x="742" y="263" type="curve"/>
      <point x="582" y="262"/>
      <point x="266" y="262"/>
      <point x="110" y="263" type="curve" smooth="yes"/>
      <point x="90" y="263"/>
      <point x="85" y="250"/>
      <point x="84" y="243" type="curve"/>
      <point x="83" y="232"/>
      <point x="86" y="226"/>
      <point x="86" y="217" type="curve"/>
      <point x="85" y="204"/>
      <point x="99" y="201"/>
      <point x="107" y="201" type="curve" smooth="yes"/>
      <point x="290" y="200"/>
      <point x="585" y="199"/>
      <point x="742" y="201" type="curve" smooth="yes"/>
      <point x="751" y="201"/>
      <point x="758" y="208"/>
      <point x="761" y="214" type="curve"/>
      <point x="762" y="222"/>
      <point x="763" y="228"/>
    </contour>
  </outline>
</glyph>
<glyph name="fl" format="2">
  <advance width="539"/>
  <outline>
    <contour>
      <point x="515" y="-3" type="curve" smooth="yes"/>
      <point x="535" y="-4"/>
      <point x="529" y="36"/>
      <point x="518" y="38" type="curve" smooth="yes"/>
      <point x="512" y="39"/>
      <point x="508" y="42"/>
      <point x="503" y="40" type="curve"/>
      <point x="462" y="40"/>
      <point x="459" y="51"/>
      <point x="459" y="92" type="curve" smooth="yes"/>
      <point x="459" y="728" type="line"/>
      <point x="457" y="739"/>
      <point x="436" y="739"/>
      <point x="421" y="733" type="curve"/>
      <point x="407" y="714"/>
      <point x="397" y="710"/>
      <point x="380" y="710" type="curve" smooth="yes"/>
      <point x="359" y="710"/>
      <point x="340" y="715"/>
      <point x="318" y="715" type="curve" smooth="yes"/>
      <point x="257" y="715"/>
      <point x="212" y="688"/>
      <point x="168" y="640" type="curve" smooth="yes"/>
      <point x="115" y="581"/>
      <point x="95" y="501"/>
      <point x="91" y="424" type="curve"/>
      <point x="90" y="422"/>
      <point x="89" y="419"/>
      <point x="86" y="417" type="curve"/>
      <point x="37" y="396" type="line"/>
      <point x="32" y="395"/>
      <point x="27" y="390"/>
      <point x="25" y="385" type="curve" smooth="yes"/>
      <point x="22" y="377"/>
      <point x="25" y="356"/>
      <point x="35" y="356" type="curve" smooth="yes"/>
      <point x="80" y="356" type="line"/>
      <point x="86" y="355"/>
      <point x="91" y="352"/>
      <point x="91" y="343" type="curve" smooth="yes"/>
      <point x="91" y="136" type="line" smooth="yes"/>
      <point x="91" y="66"/>
      <point x="89" y="61"/>
      <point x="82" y="51" type="curve" smooth="yes"/>
      <point x="77" y="44"/>
      <point x="73" y="41"/>
      <point x="43" y="38" type="curve"/>
      <point x="40" y="38"/>
      <point x="37" y="39"/>
      <point x="34" y="38" type="curve"/>
      <point x="16" y="34"/>
      <point x="16" y="-4"/>
      <point x="43" y="-3" type="curve" smooth="yes"/>
      <point x="118" y="1"/>
      <point x="207" y="-3"/>
      <point x="241" y="-3" type="curve" smooth="yes"/>
      <point x="247" y="-3" type="line"/>
      <point x="262" y="0"/>
      <point x="261" y="35"/>
      <point x="246" y="38" type="curve"/>
      <point x="243" y="39"/>
      <point x="238" y="39"/>
      <point x="234" y="38" type="curve"/>
      <point x="189" y="38"/>
      <point x="183" y="47"/>
      <point x="183" y="92" type="curve" smooth="yes"/>
      <point x="183" y="341" type="line"/>
      <point x="184" y="347"/>
      <point x="187" y="357"/>
      <point x="194" y="357" type="curve" smooth="yes"/>
      <point x="239" y="357"/>
      <point x="307" y="358"/>
      <point x="356" y="358" type="curve"/>
      <point x="363" y="357"/>
      <point x="369" y="344"/>
      <point x="369" y="336" type="curve" smooth="yes"/>
      <point x="369" y="136" type="line" smooth="yes"/>
      <point x="369" y="40"/>
      <point x="369" y="38"/>
      <point x="312" y="38" type="curve" smooth="yes"/>
      <point x="304" y="38" type="line"/>
      <point x="292" y="37"/>
      <point x="288" y="18"/>
      <point x="292" y="7" type="curve" smooth="yes"/>
      <point x="295" y="-1"/>
      <point x="300" y="-3"/>
      <point x="306" y="-3" type="curve" smooth="yes"/>
      <point x="310" y="-3" type="line" smooth="yes"/>
      <point x="370" y="-3"/>
      <point x="456" y="-1"/>
    </contour>
    <contour>
      <point x="369" y="621" type="curve"/>
      <point x="369" y="439" type="line"/>
      <point x="368" y="428"/>
      <point x="361" y="423"/>
      <point x="355" y="423" type="curve" smooth="yes"/>
      <point x="318" y="423"/>
      <point x="260" y="420"/>
      <point x="199" y="423" type="curve" smooth="yes"/>
      <point x="196" y="423"/>
      <point x="183" y="422"/>
      <point x="183" y="427" type="curve" smooth="yes"/>
      <point x="183" y="529"/>
      <point x="198" y="592"/>
      <point x="219" y="621" type="curve" smooth="yes"/>
      <point x="234" y="642"/>
      <point x="253" y="656"/>
      <point x="278" y="656" type="curve" smooth="yes"/>
      <point x="304" y="656"/>
      <point x="337" y="643"/>
    </contour>
  </outline>
</glyph>
<glyph name="twosuperior" format="2">
  <advance width="300"/>
  <outline>
    <contour>
      <point x="118" y="364" type="line" smooth="yes"/>
      <point x="110" y="364"/>
      <point x="105" y="365"/>
      <point x="110" y="369" type="curve" smooth="yes"/>
      <point x="133" y="389"/>
      <point x="151" y="403"/>
      <point x="171" y="416" type="curve" smooth="yes"/>
      <point x="217" y="448"/>
      <point x="268" y="480"/>
      <point x="268" y="544" type="curve" smooth="yes"/>
      <point x="268" y="605"/>
      <point x="212" y="646"/>
      <point x="146" y="646" type="curve" smooth="yes"/>
      <point x="76" y="646"/>
      <point x="22" y="602"/>
      <point x="15" y="529" type="curve"/>
      <point x="15" y="518"/>
      <point x="55" y="517"/>
      <point x="59" y="525" type="curve"/>
      <point x="72" y="565"/>
      <point x="100" y="586"/>
      <point x="131" y="586" type="curve" smooth="yes"/>
      <point x="163" y="586"/>
      <point x="186" y="564"/>
      <point x="186" y="537" type="curve" smooth="yes"/>
      <point x="186" y="486"/>
      <point x="125" y="440"/>
      <point x="90" y="409" type="curve" smooth="yes"/>
      <point x="49" y="374"/>
      <point x="26" y="351"/>
      <point x="9" y="331" type="curve"/>
      <point x="9" y="314" type="line" smooth="yes"/>
      <point x="9" y="302"/>
      <point x="12" y="301"/>
      <point x="24" y="301" type="curve" smooth="yes"/>
      <point x="247" y="301" type="line" smooth="yes"/>
      <point x="253" y="301"/>
      <point x="267" y="300"/>
      <point x="270" y="318" type="curve" smooth="yes"/>
      <point x="276" y="346"/>
      <point x="276" y="361"/>
      <point x="280" y="391" type="curve"/>
      <point x="280" y="397"/>
      <point x="280" y="403"/>
      <point x="268" y="403" type="curve" smooth="yes"/>
      <point x="261" y="403"/>
      <point x="251" y="403"/>
      <point x="247" y="403" type="curve" smooth="yes"/>
      <point x="241" y="403"/>
      <point x="235" y="401"/>
      <point x="234" y="394" type="curve"/>
      <point x="232" y="386"/>
      <point x="231" y="373"/>
      <point x="225" y="367" type="curve"/>
      <point x="219" y="363"/>
      <point x="199" y="364"/>
      <point x="192" y="364" type="curve" smooth="yes"/>
    </contour>
  </outline>
</glyph>
